<svg width="468" height="179" viewBox="0 0 468 179" fill="none" xmlns="http://www.w3.org/2000/svg">
<circle cx="244.643" cy="4.04849" r="4.04847" fill="#F4F4F4"/>
<circle cx="244.643" cy="28.3393" r="4.04847" fill="#F4F4F4"/>
<circle cx="244.643" cy="52.6301" r="4.04847" fill="#F4F4F4"/>
<circle cx="244.643" cy="76.9209" r="4.04847" fill="#F4F4F4"/>
<circle cx="244.643" cy="101.212" r="4.04847" fill="#F4F4F4"/>
<circle cx="244.643" cy="125.503" r="4.04847" fill="#F4F4F4"/>
<circle cx="244.643" cy="149.793" r="4.04847" fill="#F4F4F4"/>
<circle cx="244.643" cy="174.084" r="4.04847" fill="#F4F4F4"/>
<circle cx="268.934" cy="4.04849" r="4.04847" fill="#F4F4F4"/>
<circle cx="268.934" cy="28.3393" r="4.04847" fill="#F4F4F4"/>
<circle cx="268.934" cy="52.6301" r="4.04847" fill="#F4F4F4"/>
<circle cx="268.934" cy="76.9209" r="4.04847" fill="#F4F4F4"/>
<circle cx="268.934" cy="101.212" r="4.04847" fill="#F4F4F4"/>
<circle cx="268.934" cy="125.503" r="4.04847" fill="#F4F4F4"/>
<circle cx="268.934" cy="149.793" r="4.04847" fill="#F4F4F4"/>
<circle cx="268.934" cy="174.084" r="4.04847" fill="#F4F4F4"/>
<circle cx="293.225" cy="4.04849" r="4.04847" fill="#F4F4F4"/>
<circle cx="293.225" cy="28.3393" r="4.04847" fill="#F4F4F4"/>
<circle cx="293.225" cy="52.6301" r="4.04847" fill="#F4F4F4"/>
<circle cx="293.225" cy="76.9209" r="4.04847" fill="#F4F4F4"/>
<circle cx="293.225" cy="101.212" r="4.04847" fill="#F4F4F4"/>
<circle cx="293.225" cy="125.503" r="4.04847" fill="#F4F4F4"/>
<circle cx="293.225" cy="149.793" r="4.04847" fill="#F4F4F4"/>
<circle cx="293.225" cy="174.084" r="4.04847" fill="#F4F4F4"/>
<circle cx="317.516" cy="4.04849" r="4.04847" fill="#F4F4F4"/>
<circle cx="317.516" cy="28.3393" r="4.04847" fill="#F4F4F4"/>
<circle cx="317.516" cy="52.6301" r="4.04847" fill="#F4F4F4"/>
<circle cx="317.516" cy="76.9209" r="4.04847" fill="#F4F4F4"/>
<circle cx="317.516" cy="101.212" r="4.04847" fill="#F4F4F4"/>
<circle cx="317.516" cy="125.503" r="4.04847" fill="#F4F4F4"/>
<circle cx="317.516" cy="149.793" r="4.04847" fill="#F4F4F4"/>
<circle cx="317.516" cy="174.084" r="4.04847" fill="#F4F4F4"/>
<circle cx="341.806" cy="4.04849" r="4.04847" fill="#F4F4F4"/>
<circle cx="341.806" cy="28.3393" r="4.04847" fill="#F4F4F4"/>
<circle cx="341.806" cy="52.6301" r="4.04847" fill="#F4F4F4"/>
<circle cx="341.806" cy="76.9209" r="4.04847" fill="#F4F4F4"/>
<circle cx="341.806" cy="101.212" r="4.04847" fill="#F4F4F4"/>
<circle cx="341.806" cy="125.503" r="4.04847" fill="#F4F4F4"/>
<circle cx="341.806" cy="149.793" r="4.04847" fill="#F4F4F4"/>
<circle cx="341.806" cy="174.084" r="4.04847" fill="#F4F4F4"/>
<circle cx="366.097" cy="4.04849" r="4.04847" fill="#F4F4F4"/>
<circle cx="366.097" cy="28.3393" r="4.04847" fill="#F4F4F4"/>
<circle cx="366.097" cy="52.6301" r="4.04847" fill="#F4F4F4"/>
<circle cx="366.097" cy="76.9209" r="4.04847" fill="#F4F4F4"/>
<circle cx="366.097" cy="101.212" r="4.04847" fill="#F4F4F4"/>
<circle cx="366.097" cy="125.503" r="4.04847" fill="#F4F4F4"/>
<circle cx="366.097" cy="149.793" r="4.04847" fill="#F4F4F4"/>
<circle cx="366.097" cy="174.084" r="4.04847" fill="#F4F4F4"/>
<circle cx="390.388" cy="4.04849" r="4.04847" fill="#F4F4F4"/>
<circle cx="390.388" cy="28.3393" r="4.04847" fill="#F4F4F4"/>
<circle cx="390.388" cy="52.6301" r="4.04847" fill="#F4F4F4"/>
<circle cx="390.388" cy="76.9209" r="4.04847" fill="#F4F4F4"/>
<circle cx="390.388" cy="101.212" r="4.04847" fill="#F4F4F4"/>
<circle cx="390.388" cy="125.503" r="4.04847" fill="#F4F4F4"/>
<circle cx="390.388" cy="149.793" r="4.04847" fill="#F4F4F4"/>
<circle cx="390.388" cy="174.084" r="4.04847" fill="#F4F4F4"/>
<circle cx="414.679" cy="4.04849" r="4.04847" fill="#F4F4F4"/>
<circle cx="414.679" cy="28.3393" r="4.04847" fill="#F4F4F4"/>
<circle cx="414.679" cy="52.6301" r="4.04847" fill="#F4F4F4"/>
<circle cx="414.679" cy="76.9209" r="4.04847" fill="#F4F4F4"/>
<circle cx="414.679" cy="101.212" r="4.04847" fill="#F4F4F4"/>
<circle cx="414.679" cy="125.503" r="4.04847" fill="#F4F4F4"/>
<circle cx="414.679" cy="149.793" r="4.04847" fill="#F4F4F4"/>
<circle cx="414.679" cy="174.084" r="4.04847" fill="#F4F4F4"/>
<circle cx="438.97" cy="4.04849" r="4.04847" fill="#F4F4F4"/>
<circle cx="438.97" cy="28.3393" r="4.04847" fill="#F4F4F4"/>
<circle cx="438.97" cy="52.6301" r="4.04847" fill="#F4F4F4"/>
<circle cx="438.97" cy="76.9209" r="4.04847" fill="#F4F4F4"/>
<circle cx="438.97" cy="101.212" r="4.04847" fill="#F4F4F4"/>
<circle cx="438.97" cy="125.503" r="4.04847" fill="#F4F4F4"/>
<circle cx="438.97" cy="149.793" r="4.04847" fill="#F4F4F4"/>
<circle cx="438.97" cy="174.084" r="4.04847" fill="#F4F4F4"/>
<circle cx="463.26" cy="4.04849" r="4.04847" fill="#F4F4F4"/>
<circle cx="463.26" cy="28.3393" r="4.04847" fill="#F4F4F4"/>
<circle cx="463.26" cy="52.6301" r="4.04847" fill="#F4F4F4"/>
<circle cx="463.26" cy="76.9209" r="4.04847" fill="#F4F4F4"/>
<circle cx="463.26" cy="101.212" r="4.04847" fill="#F4F4F4"/>
<circle cx="463.26" cy="125.503" r="4.04847" fill="#F4F4F4"/>
<circle cx="463.26" cy="149.793" r="4.04847" fill="#F4F4F4"/>
<circle cx="463.26" cy="174.084" r="4.04847" fill="#F4F4F4"/>
<circle cx="4.04847" cy="4.04847" r="4.04847" fill="#F4F4F4"/>
<circle cx="4.04847" cy="28.3393" r="4.04847" fill="#F4F4F4"/>
<circle cx="4.04847" cy="52.6301" r="4.04847" fill="#F4F4F4"/>
<circle cx="4.04847" cy="76.9209" r="4.04847" fill="#F4F4F4"/>
<circle cx="4.04847" cy="101.212" r="4.04847" fill="#F4F4F4"/>
<circle cx="4.04847" cy="125.503" r="4.04847" fill="#F4F4F4"/>
<circle cx="4.04847" cy="149.793" r="4.04847" fill="#F4F4F4"/>
<circle cx="4.04847" cy="174.084" r="4.04847" fill="#F4F4F4"/>
<circle cx="28.3394" cy="4.04849" r="4.04847" fill="#F4F4F4"/>
<circle cx="28.3394" cy="28.3393" r="4.04847" fill="#F4F4F4"/>
<circle cx="28.3394" cy="52.6301" r="4.04847" fill="#F4F4F4"/>
<circle cx="28.3394" cy="76.9209" r="4.04847" fill="#F4F4F4"/>
<circle cx="28.3394" cy="101.212" r="4.04847" fill="#F4F4F4"/>
<circle cx="28.3394" cy="125.503" r="4.04847" fill="#F4F4F4"/>
<circle cx="28.3394" cy="149.793" r="4.04847" fill="#F4F4F4"/>
<circle cx="28.3394" cy="174.084" r="4.04847" fill="#F4F4F4"/>
<circle cx="52.6301" cy="4.04849" r="4.04847" fill="#F4F4F4"/>
<circle cx="52.6301" cy="28.3393" r="4.04847" fill="#F4F4F4"/>
<circle cx="52.6301" cy="52.6301" r="4.04847" fill="#F4F4F4"/>
<circle cx="52.6301" cy="76.9209" r="4.04847" fill="#F4F4F4"/>
<circle cx="52.6301" cy="101.212" r="4.04847" fill="#F4F4F4"/>
<circle cx="52.6301" cy="125.503" r="4.04847" fill="#F4F4F4"/>
<circle cx="52.6301" cy="149.793" r="4.04847" fill="#F4F4F4"/>
<circle cx="52.6301" cy="174.084" r="4.04847" fill="#F4F4F4"/>
<circle cx="76.9209" cy="4.04849" r="4.04847" fill="#F4F4F4"/>
<circle cx="76.9209" cy="28.3393" r="4.04847" fill="#F4F4F4"/>
<circle cx="76.9209" cy="52.6301" r="4.04847" fill="#F4F4F4"/>
<circle cx="76.9209" cy="76.9209" r="4.04847" fill="#F4F4F4"/>
<circle cx="76.9209" cy="101.212" r="4.04847" fill="#F4F4F4"/>
<circle cx="76.9209" cy="125.503" r="4.04847" fill="#F4F4F4"/>
<circle cx="76.9209" cy="149.793" r="4.04847" fill="#F4F4F4"/>
<circle cx="76.9209" cy="174.084" r="4.04847" fill="#F4F4F4"/>
<circle cx="101.212" cy="4.04849" r="4.04847" fill="#F4F4F4"/>
<circle cx="101.212" cy="28.3393" r="4.04847" fill="#F4F4F4"/>
<circle cx="101.212" cy="52.6301" r="4.04847" fill="#F4F4F4"/>
<circle cx="101.212" cy="76.9209" r="4.04847" fill="#F4F4F4"/>
<circle cx="101.212" cy="101.212" r="4.04847" fill="#F4F4F4"/>
<circle cx="101.212" cy="125.503" r="4.04847" fill="#F4F4F4"/>
<circle cx="101.212" cy="149.793" r="4.04847" fill="#F4F4F4"/>
<circle cx="101.212" cy="174.084" r="4.04847" fill="#F4F4F4"/>
<circle cx="125.503" cy="4.04849" r="4.04847" fill="#F4F4F4"/>
<circle cx="125.503" cy="28.3393" r="4.04847" fill="#F4F4F4"/>
<circle cx="125.503" cy="52.6301" r="4.04847" fill="#F4F4F4"/>
<circle cx="125.503" cy="76.9209" r="4.04847" fill="#F4F4F4"/>
<circle cx="125.503" cy="101.212" r="4.04847" fill="#F4F4F4"/>
<circle cx="125.503" cy="125.503" r="4.04847" fill="#F4F4F4"/>
<circle cx="125.503" cy="149.793" r="4.04847" fill="#F4F4F4"/>
<circle cx="125.503" cy="174.084" r="4.04847" fill="#F4F4F4"/>
<circle cx="149.793" cy="4.04849" r="4.04847" fill="#F4F4F4"/>
<circle cx="149.793" cy="28.3393" r="4.04847" fill="#F4F4F4"/>
<circle cx="149.793" cy="52.6301" r="4.04847" fill="#F4F4F4"/>
<circle cx="149.793" cy="76.9209" r="4.04847" fill="#F4F4F4"/>
<circle cx="149.793" cy="101.212" r="4.04847" fill="#F4F4F4"/>
<circle cx="149.793" cy="125.503" r="4.04847" fill="#F4F4F4"/>
<circle cx="149.793" cy="149.793" r="4.04847" fill="#F4F4F4"/>
<circle cx="149.793" cy="174.084" r="4.04847" fill="#F4F4F4"/>
<circle cx="174.084" cy="4.04849" r="4.04847" fill="#F4F4F4"/>
<circle cx="174.084" cy="28.3393" r="4.04847" fill="#F4F4F4"/>
<circle cx="174.084" cy="52.6301" r="4.04847" fill="#F4F4F4"/>
<circle cx="174.084" cy="76.9209" r="4.04847" fill="#F4F4F4"/>
<circle cx="174.084" cy="101.212" r="4.04847" fill="#F4F4F4"/>
<circle cx="174.084" cy="125.503" r="4.04847" fill="#F4F4F4"/>
<circle cx="174.084" cy="149.793" r="4.04847" fill="#F4F4F4"/>
<circle cx="174.084" cy="174.084" r="4.04847" fill="#F4F4F4"/>
<circle cx="198.375" cy="4.04849" r="4.04847" fill="#F4F4F4"/>
<circle cx="198.375" cy="28.3393" r="4.04847" fill="#F4F4F4"/>
<circle cx="198.375" cy="52.6301" r="4.04847" fill="#F4F4F4"/>
<circle cx="198.375" cy="76.9209" r="4.04847" fill="#F4F4F4"/>
<circle cx="198.375" cy="101.212" r="4.04847" fill="#F4F4F4"/>
<circle cx="198.375" cy="125.503" r="4.04847" fill="#F4F4F4"/>
<circle cx="198.375" cy="149.793" r="4.04847" fill="#F4F4F4"/>
<circle cx="198.375" cy="174.084" r="4.04847" fill="#F4F4F4"/>
<circle cx="222.666" cy="4.04849" r="4.04847" fill="#F4F4F4"/>
<circle cx="222.666" cy="28.3393" r="4.04847" fill="#F4F4F4"/>
<circle cx="222.666" cy="52.6301" r="4.04847" fill="#F4F4F4"/>
<circle cx="222.666" cy="76.9209" r="4.04847" fill="#F4F4F4"/>
<circle cx="222.666" cy="101.212" r="4.04847" fill="#F4F4F4"/>
<circle cx="222.666" cy="125.503" r="4.04847" fill="#F4F4F4"/>
<circle cx="222.666" cy="149.793" r="4.04847" fill="#F4F4F4"/>
<circle cx="222.666" cy="174.084" r="4.04847" fill="#F4F4F4"/>
</svg>
